<svg xmlns="http://www.w3.org/2000/svg" version="1.1" xmlns:xlink="http://www.w3.org/1999/xlink" xmlns:svgjs="http://svgjs.com/svgjs" width="512" height="512" x="0" y="0" viewBox="0 0 512 512" style="enable-background:new 0 0 512 512" xml:space="preserve" class=""><g><path d="M507.527 208.179a10.132 10.132 0 0 0-9.955-8.242H261.404c-5.596 0-10.132 4.536-10.132 10.132v97.266c0 5.596 4.536 10.132 10.132 10.132h115.967c-11.752 23.149-30.065 42.7-52.671 55.958-20.729 12.168-44.485 18.599-68.7 18.599-56.417 0-107.615-35.479-127.404-88.296-5.72-15.213-8.62-31.271-8.62-47.729 0-15.134 2.471-30.009 7.34-44.206 18.871-54.919 70.586-91.818 128.685-91.818 25.528 0 50.398 7.11 71.916 20.561a10.13 10.13 0 0 0 11.788-.752l79.65-65.209a10.13 10.13 0 0 0 .054-15.634C373.632 20.933 315.599 0 256 0 114.841 0 0 114.841 0 256c0 42.345 10.552 84.299 30.516 121.326C75.307 460.396 161.708 512 256 512c59.004 0 116.586-20.556 162.139-57.879 44.922-36.807 76.269-88.19 88.261-144.677 3.715-17.449 5.6-35.431 5.6-53.445 0-16.093-1.505-32.182-4.473-47.82zM256 20.264c50.746 0 100.257 16.477 140.753 46.628l-64.4 52.724c-23.24-13.043-49.482-19.904-76.353-19.904-61.934 0-117.53 36.511-142.555 92.184l-62.849-51.454C91.079 68.767 167.977 20.264 256 20.264zM20.264 256c0-34.585 7.488-67.453 20.924-97.071l64.819 53.067A156.32 156.32 0 0 0 99.712 256c0 16.43 2.525 32.523 7.502 47.94l-64.412 52.727C28.041 325.39 20.264 290.848 20.264 256zM256 491.736c-84.05 0-161.291-44.532-203.565-116.768l62.675-51.305c11.504 23.986 28.887 44.597 50.889 60.122 26.427 18.647 57.549 28.504 90 28.504 25.424 0 50.411-6.197 72.719-17.94l64.854 53.093c-39.883 28.655-88.184 44.294-137.572 44.294zM486.581 305.23c-10.63 50.067-37.787 95.775-76.714 129.362l-62.917-51.508c25.118-18.016 44.552-43.208 55.414-72.195a10.133 10.133 0 0 0-1.16-9.327 10.134 10.134 0 0 0-8.327-4.359H271.536V220.2h217.493a237.645 237.645 0 0 1 2.707 35.799c0 16.6-1.734 33.162-5.155 49.231z" fill="#05A2C6" data-original="#05A2C6" class=""></path></g></svg>